<svg width="980" height="551" xmlns="http://www.w3.org/2000/svg" xmlns:xlink="http://www.w3.org/1999/xlink">
<path fill="#ff595e" d="M 237.16 75.79 Q 237.16 75.79 239.86 76.32 242.55 76.85 244.27 79.05 246.00 81.25 248.23 83.53 250.46 85.81 252.35 87.52 254.23 89.23 256.22 90.96 258.21 92.69 261.33 94.76 264.45 96.83 266.61 98.10 268.76 99.36 269.45 102.06 270.15 104.77 270.14 104.77 270.14 104.78 270.14 104.78 270.14 104.79 267.44 105.49 264.74 106.19 262.48 104.90 260.21 103.62 258.48 102.53 256.76 101.45 254.86 100.09 252.96 98.73 250.90 96.94 248.85 95.15 246.81 93.29 244.78 91.43 243.23 89.87 241.69 88.31 240.03 86.50 238.37 84.69 237.07 82.91 235.78 81.12 236.46 78.46 237.14 75.80 237.15 75.80 Z"></path>
</svg>