<svg width="980" height="551" xmlns="http://www.w3.org/2000/svg" xmlns:xlink="http://www.w3.org/1999/xlink">
<path fill="#ff595e" d="M 67.43 376.09 Q 67.43 376.09 70.89 373.91 74.35 371.74 77.75 371.66 81.16 371.58 83.66 371.40 86.16 371.22 89.34 370.89 92.52 370.57 94.54 370.49 96.57 370.42 98.69 370.95 100.81 371.49 100.40 371.29 99.98 371.09 100.45 371.17 100.93 371.25 101.37 371.44 101.82 371.63 102.20 371.92 102.58 372.21 102.89 372.59 103.19 372.96 103.39 373.40 103.60 373.83 103.69 374.31 103.79 374.78 103.77 375.26 103.75 375.74 103.61 376.21 103.47 376.67 103.23 377.08 102.99 377.50 102.65 377.85 102.32 378.19 101.91 378.45 101.50 378.71 101.04 378.86 100.58 379.01 100.10 379.04 99.62 379.08 97.07 378.92 94.51 378.75 92.09 378.50 89.67 378.25 87.24 378.33 84.81 378.41 82.63 378.43 80.44 378.45 77.71 378.09 74.98 377.73 73.11 375.16 71.23 372.59 71.24 372.59 71.24 372.58 71.24 372.58 71.24 372.57 73.79 371.21 76.34 369.85 78.38 370.15 80.42 370.45 83.58 370.34 86.73 370.24 88.95 370.26 91.17 370.28 93.34 370.55 95.51 370.82 97.74 370.95 99.98 371.09 100.45 371.17 100.93 371.25 101.37 371.44 101.81 371.63 102.20 371.92 102.58 372.21 102.89 372.59 103.19 372.96 103.39 373.40 103.60 373.83 103.69 374.31 103.79 374.78 103.77 375.26 103.75 375.74 103.61 376.21 103.47 376.67 103.23 377.08 102.99 377.50 102.65 377.85 102.32 378.19 101.91 378.45 101.50 378.71 101.04 378.86 100.58 379.01 100.10 379.04 99.62 379.08 98.72 378.96 97.82 378.83 95.46 378.69 93.10 378.55 89.91 378.87 86.73 379.20 84.04 379.39 81.35 379.58 78.05 379.65 74.76 379.73 71.10 377.92 67.43 376.11 67.43 376.10 Z"></path><path fill="#ff595e" d="M 103.87 377.30 Q 103.87 377.30 99.76 380.48 95.65 383.66 91.11 384.63 86.56 385.60 81.81 386.45 77.07 387.29 72.41 387.67 67.76 388.05 63.53 388.02 59.30 387.99 55.25 387.60 51.19 387.21 47.29 386.64 43.39 386.08 40.69 385.41 37.99 384.74 35.57 383.81 33.15 382.88 31.38 379.46 29.61 376.05 29.98 372.72 30.34 369.39 32.41 365.20 34.48 361.02 39.40 355.49 44.32 349.96 49.04 346.32 53.75 342.68 60.29 338.88 66.83 335.07 72.50 332.56 78.18 330.05 82.38 328.29 86.59 326.54 89.67 325.46 92.76 324.37 96.02 323.52 99.28 322.66 101.31 322.28 103.35 321.91 106.62 321.99 109.89 322.07 113.38 324.12 116.88 326.16 119.23 327.95 121.59 329.75 123.39 331.20 125.18 332.65 126.97 334.28 128.75 335.91 129.99 337.81 131.23 339.70 131.92 341.73 132.60 343.75 132.93 346.66 133.26 349.57 132.86 352.84 132.47 356.11 131.40 358.96 130.33 361.80 128.94 363.71 127.54 365.63 125.72 367.81 123.91 369.98 119.60 373.48 115.30 376.98 110.45 381.08 105.60 385.19 100.85 389.18 96.10 393.16 91.97 396.50 87.83 399.84 84.63 402.51 81.42 405.17 76.31 408.35 71.21 411.52 66.50 414.56 61.80 417.60 57.48 420.17 53.17 422.74 49.01 422.90 44.85 423.06 44.85 423.05 44.84 423.05 44.84 423.04 44.84 423.04 46.95 419.46 49.07 415.87 53.26 413.37 57.46 410.87 62.23 407.79 67.00 404.72 71.66 401.87 76.31 399.02 79.56 396.32 82.81 393.61 86.89 390.33 90.96 387.04 95.70 383.06 100.43 379.09 105.36 374.91 110.30 370.73 114.04 367.78 117.79 364.83 120.38 361.75 122.98 358.67 124.01 355.62 125.04 352.58 125.11 349.98 125.18 347.38 124.47 344.93 123.76 342.49 121.96 340.68 120.16 338.87 118.45 337.49 116.75 336.11 114.33 334.27 111.91 332.43 109.54 330.98 107.18 329.52 104.24 329.96 101.30 330.40 98.35 331.16 95.40 331.93 92.53 332.92 89.67 333.92 85.54 335.65 81.40 337.37 76.12 339.68 70.83 342.00 64.71 345.52 58.60 349.04 54.42 352.19 50.24 355.35 45.88 360.07 41.53 364.80 39.87 367.69 38.22 370.58 39.08 373.78 39.94 376.98 42.24 377.57 44.55 378.16 48.26 378.70 51.97 379.24 55.67 379.62 59.37 379.99 63.25 380.03 67.13 380.07 71.40 379.74 75.67 379.41 80.28 378.60 84.89 377.78 89.23 376.86 93.56 375.94 98.71 376.61 103.86 377.28 103.87 377.29 Z"></path><path fill="#ff595e" d="M 77.24 103.44 Q 77.24 103.44 81.32 104.37 85.39 105.30 87.64 106.98 89.89 108.65 92.90 110.47 95.91 112.28 99.45 114.84 102.99 117.40 106.24 119.80 109.48 122.20 113.67 125.54 117.85 128.88 122.28 132.52 126.72 136.15 132.50 140.62 138.28 145.09 143.91 149.65 149.54 154.21 154.82 158.13 160.10 162.05 164.56 165.09 169.03 168.14 171.27 169.63 173.52 171.12 174.23 174.00 174.95 176.89 174.95 176.89 174.94 176.89 174.94 176.90 174.94 176.90 172.03 177.34 169.12 177.78 166.82 176.26 164.52 174.75 159.92 171.61 155.33 168.47 149.91 164.45 144.50 160.43 138.94 155.92 133.39 151.42 127.52 146.88 121.65 142.34 117.25 138.73 112.85 135.13 108.79 131.88 104.73 128.63 101.51 126.25 98.30 123.88 95.02 121.50 91.75 119.12 88.43 117.09 85.11 115.06 82.60 113.18 80.10 111.31 78.66 107.38 77.23 103.45 77.23 103.44 Z"></path><path fill="#ff595e" d="M 112.79 79.37 Q 112.79 79.37 119.24 83.38 125.69 87.39 130.13 92.44 134.57 97.50 139.37 103.05 144.17 108.60 149.15 114.63 154.12 120.66 157.77 124.97 161.41 129.29 164.98 133.59 168.55 137.88 172.25 142.10 175.95 146.31 179.08 149.63 182.21 152.94 184.87 155.87 187.53 158.80 189.52 160.91 191.51 163.02 191.94 166.42 192.37 169.82 192.36 169.82 192.36 169.82 192.36 169.83 192.35 169.83 189.03 169.17 185.70 168.52 183.65 166.35 181.60 164.18 178.99 161.30 176.38 158.43 173.16 155.01 169.95 151.59 166.17 147.29 162.39 142.99 158.85 138.72 155.31 134.45 151.63 130.10 147.95 125.75 143.03 119.79 138.12 113.83 133.34 108.30 128.56 102.78 124.19 97.81 119.83 92.83 116.30 86.11 112.77 79.38 112.78 79.37 Z"></path><line fill="transparent" stroke="#ff595e" stroke-width="4" stroke-linecap="round" x1="146.79" y1="72.03" x2="275.61" y2="158.15"></line><line fill="transparent" stroke="#ff595e" stroke-width="4" stroke-linecap="round" x1="318.97" y1="113.27" x2="301.40" y2="203.82"></line><line fill="transparent" stroke="#ff595e" stroke-width="4" stroke-linecap="round" x1="61.00" y1="375.48" x2="120.54" y2="374.82"></line>
</svg>